<?xml version="1.0" standalone="no"?><!DOCTYPE svg PUBLIC "-//W3C//DTD SVG 1.1//EN" "http://www.w3.org/Graphics/SVG/1.1/DTD/svg11.dtd"><svg t="1504846707465" class="icon" style="" viewBox="0 0 1024 1024" version="1.1" xmlns="http://www.w3.org/2000/svg" p-id="3153" xmlns:xlink="http://www.w3.org/1999/xlink" width="200" height="200"><defs><style type="text/css"></style></defs><path d="M58.5 506.5h108.9v438.2c0 40.3 32.8 73 73 73h545.2c40.3 0 73-32.8 73-73V506.5h109c31.2 0 56.6-24.8 56.6-55.3 0-12.6-4.5-24.9-12.5-34.7-1.7-2.4-3.7-4.6-5.9-6.5L572.5 36c-14.2-13.2-32.8-20.5-52.5-20.5-19.6 0-38.2 7.2-50.9 19.1l-448.5 375c-2.7 2.3-5.1 5-7 7.8C6 427 1.8 438.9 1.8 451.2c0 30.5 25.4 55.3 56.7 55.3z" fill="#C13E3E" p-id="3154"></path><path d="M659.1 659.9c20.2 0 36.5-16.3 36.5-36.5s-16.3-36.5-36.5-36.5H549.6v-3.1l108-108c14.3-14.3 14.3-37.4 0-51.6-14.3-14.3-37.4-14.3-51.6 0L513.1 517l-92.9-92.9c-14.3-14.3-37.4-14.3-51.6 0-14.3 14.3-14.3 37.4 0 51.6l108 108v3.1H367c-20.2 0-36.5 16.3-36.5 36.5s16.3 36.5 36.5 36.5h109.5v54.8H367c-20.2 0-36.5 16.3-36.5 36.5s16.3 36.5 36.5 36.5h109.5v73c0 20.2 16.3 36.5 36.5 36.5s36.5-16.3 36.5-36.5v-73H659c20.2 0 36.5-16.3 36.5-36.5s-16.3-36.5-36.5-36.5H549.6v-54.8h109.5v0.1z" fill="#FFFFFF" p-id="3155"></path></svg>
