<?xml version="1.0" standalone="no"?><!DOCTYPE svg PUBLIC "-//W3C//DTD SVG 1.1//EN" "http://www.w3.org/Graphics/SVG/1.1/DTD/svg11.dtd"><svg t="1504865991332" class="icon" style="" viewBox="0 0 1043 1024" version="1.1" xmlns="http://www.w3.org/2000/svg" p-id="2378" xmlns:xlink="http://www.w3.org/1999/xlink" width="203.7109375" height="200"><defs><style type="text/css"></style></defs><path d="M890.744912018647 147.45802271604947C694.2709886419756-56.117367380701126 372.33781426757525-60.85167895893346 171.12957931267175 133.2550879813532S-37.1801210677728 651.6621857324244 156.92664587251357 852.870420687328c196.47392337667162 201.2082336603654 518.4070977510715 208.3097016749827 719.615331411437 11.83577829831111 0 0 0 0 0 0C1080.1173673807016 670.5994320453528 1084.8516789589335 348.66625637641494 890.744912018647 147.45802271604947zM817.3630844978572 549.8744913313184L817.3630844978572 549.8744913313184l-158.59943204535313-2.3671551418469137-189.37245536205432 258.01997130461234-75.74898266263703 0 132.5607190123457-269.8557496029234-189.37245536205432-9.468623156464195-78.11613780448396 99.42053925925924-35.50733489493334 0 33.14017975308642-134.92787415419258-26.038713033007408-156.2322756089679 35.50733489493334 0 73.38182622625185 113.62347399395556L533.3044014547752 440.98532891559506 412.57946074074056 164.02811259259266l75.74898266263703 0 175.16952192189632 269.8557496029234L819.7302409342421 438.6181737737481c71.01467108440494 0 101.78769440110615 23.67155659662222 101.78769440110615 54.44458120786173C919.1507801935015 523.835778298311 888.377755582262 549.8744913313184 817.3630844978572 549.8744913313184z" fill="#1296db" p-id="2379"></path></svg>
