<?xml version="1.0" standalone="no"?><!DOCTYPE svg PUBLIC "-//W3C//DTD SVG 1.1//EN" "http://www.w3.org/Graphics/SVG/1.1/DTD/svg11.dtd"><svg t="1504834178618" class="icon" style="" viewBox="0 0 1301 1024" version="1.1" xmlns="http://www.w3.org/2000/svg" p-id="5316" xmlns:xlink="http://www.w3.org/1999/xlink" width="254.1015625" height="200"><defs><style type="text/css"></style></defs><path d="M1267.088 300.707H1145.22c-5.793 0-11.125 1.727-15.904 4.307l-54.94-165.473C1056.797 45.395 990.548 0 909.126 0H393.035C299.57 0 242.842 60.978 227.783 139.449l-55.087 166.036c-5.011-2.905-10.697-4.778-16.874-4.778H33.932C15.202 300.707 0 315.882 0 334.664v29.444c0 18.728 15.204 33.932 33.932 33.932l46.148 7.883c-14.567 28.48-22.885 61.061-22.885 98.97L40.112 700.217c0 5.658 0.415 11.426 1.117 17.23-0.646 3.541-1.117 7.237-1.117 11.018V963.44c0 33.434 27.136 60.534 60.569 60.534h92.439c33.46 0 60.561-27.1 60.561-60.534v-75.529h794.762v75.529c0 33.432 27.11 60.534 60.569 60.534h92.44c33.433 0 60.564-27.102 60.564-60.534V728.46c0-3.785-0.466-7.475-1.119-11.017 0.673-5.804 1.119-11.572 1.119-17.23L1244.933 504.9c0-38.007-8.347-70.614-22.968-99.186l45.123-7.675c18.754 0 33.93-15.204 33.93-33.932v-29.445c0.004-18.78-15.175-33.956-33.93-33.954z m-998.552-34.775L308.88 158.55l0.563-2.516c4.012-21.714 12.978-25.583 26.22-42.349h631.589c13.362 17.23 21.689 21.604 25.375 42.114l40.987 110.135 15.005 59.827c-3.406 43.775-56 78.351-99.77 78.351H353.308c-43.804 0-96.399-34.574-99.798-78.351l15.034-59.827-0.007-0.003z m28.274 510.641c-50.661 0-91.704-41.051-91.704-91.711s41.043-91.706 91.704-91.706 91.712 41.044 91.712 91.706c0.002 50.66-41.048 91.711-91.712 91.711m512.204-67.655h-0.009c0 15.086-12.216 27.277-27.283 27.277H524.445c-15.057 0-27.283-12.19-27.283-27.277v-76.65c0-15.058 12.217-27.25 27.283-27.25h257.28c15.064 0 27.287 12.188 27.287 27.25l0.002 76.65z m196.303 67.655c-50.661 0-91.736-41.051-91.736-91.711s41.077-91.706 91.736-91.706c50.662 0 91.705 41.044 91.705 91.706 0.009 50.66-41.043 91.711-91.705 91.711" p-id="5317"></path></svg>