<?xml version="1.0" standalone="no"?><!DOCTYPE svg PUBLIC "-//W3C//DTD SVG 1.1//EN" "http://www.w3.org/Graphics/SVG/1.1/DTD/svg11.dtd"><svg t="1504834123087" class="icon" style="" viewBox="0 0 1024 1024" version="1.1" xmlns="http://www.w3.org/2000/svg" p-id="3938" xmlns:xlink="http://www.w3.org/1999/xlink" width="200" height="200"><defs><style type="text/css"></style></defs><path d="M512.157744 81.147897C273.859401 81.147897 80.678277 274.347083 80.678277 512.644222s193.182328 431.460201 431.479467 431.460201c238.297139 0 431.478263-193.159449 431.478263-431.460201 0-238.298343-193.181124-431.496325-431.478263-431.496325z m-105.716238 629.025647c-28.732304 16.770244-62.015104 29.246477-91.114675 29.173024-22.824727-0.03492-43.043667-7.81616-56.510918-27.245175-23.777213-34.3846 1.212582-59.390049 17.779324-75.939933 11.797091-11.833215 22.952368-23.007759 23.649573-36.509931 1.358285-26.826129-23.59659-34.862649-31.264639-36.678512-24.622528-5.88831-56.106323 3.082633-68.582556 31.429608-3.302993 7.52355-12.108966 10.937325-19.631312 7.633128-7.52355-3.319851-10.918059-12.108966-7.615067-19.631313 19.062952-43.208636 66.069488-57.098545 102.691406-48.382883 34.529098 8.184631 55.757118 34.529098 54.124286 67.113489-1.265565 24.970529-18.495796 42.20076-32.32911 56.052136-19.448281 19.447077-23.117337 25.301671-14.347488 37.978998 25.116231 36.308837 99.735209-5.779936 108.176324-10.697698 7.063564-4.129042 16.181413-1.743614 20.330926 5.358482 4.147104 7.098484 1.760472 16.199476-5.356074 20.34658z m82.781933-26.86105c-18.826938 18.734218-49.723106 18.236903-69.024481-1.137925-19.26525-19.373624-19.668641-50.308324-0.842907-69.023276l164.430757-200.115843c5.54031 52.180783 43.519308 94.837917 93.370054 107.34907L489.223439 683.312494z m217.893964-174.082047a112.092231 112.092231 0 0 1-15.98032-1.211378c-52.126596-7.777627-92.30799-52.472188-93.149694-106.488101 0-0.66108-0.036125-1.30169-0.036124-1.944708 0.12764-60.363005 49.31851-109.332311 109.645391-109.205875 60.346147 0.148111 109.315453 49.337777 109.167342 109.683924-0.130049 60.325676-49.320919 109.31184-109.646595 109.166138z" fill="#1296db" p-id="3939"></path></svg>
