<?xml version="1.0" standalone="no"?><!DOCTYPE svg PUBLIC "-//W3C//DTD SVG 1.1//EN" "http://www.w3.org/Graphics/SVG/1.1/DTD/svg11.dtd"><svg t="1504836144632" class="icon" style="" viewBox="0 0 1024 1024" version="1.1" xmlns="http://www.w3.org/2000/svg" p-id="3180" xmlns:xlink="http://www.w3.org/1999/xlink" width="200" height="200"><defs><style type="text/css"></style></defs><path d="M993.465566 867.292935l-195.167005-195.083094c49.563836-67.502393 69.805856-133.211954 69.805856-226.227418 0-232.450143-188.466396-420.890956-420.837744-420.890956C214.815507 25.120121 26.40437 213.531258 26.40437 445.982424c0 232.370325 188.411137 420.866397 420.862303 420.866397 109.079324 0 196.739826-40.538275 269.14795-106.528222l192.114482 192.110389c8.772804 8.777921 22.986527 8.777921 31.843242 0l53.120848-53.17713C1002.243487 890.396119 1002.243487 876.18342 993.465566 867.292935L993.465566 867.292935zM446.986287 739.633441c-162.369018 0-293.984614-131.559315-293.984614-293.932426 0-162.396647 131.615597-293.982568 293.984614-293.982568 162.315806 0 293.931403 131.586944 293.931403 293.982568C740.91769 608.045473 609.302093 739.633441 446.986287 739.633441L446.986287 739.633441zM446.986287 739.633441" fill="#1AAD19" p-id="3181"></path></svg>
