<?xml version="1.0" standalone="no"?><!DOCTYPE svg PUBLIC "-//W3C//DTD SVG 1.1//EN" "http://www.w3.org/Graphics/SVG/1.1/DTD/svg11.dtd"><svg t="1505130558302" class="icon" style="" viewBox="0 0 1024 1024" version="1.1" xmlns="http://www.w3.org/2000/svg" p-id="2359" xmlns:xlink="http://www.w3.org/1999/xlink" width="200" height="200"><defs><style type="text/css"></style></defs><path d="M 480.977 548.846 c -126.224 -20.324 -271.701 -56.692 -271.701 -211.798 c 0 -154.035 143.339 -213.938 271.701 -213.938 v -95.203 h 51.344 v 95.203 c 182.918 3.21 268.493 87.714 277.051 208.59 h -106.969 c -9.628 -78.087 -71.669 -114.458 -170.082 -118.736 v 240.681 c 209.661 34.23 297.375 87.714 297.375 222.496 c 0 158.315 -148.688 223.566 -297.375 223.566 v 95.203 h -51.344 v -95.205 c -152.966 0 -286.677 -83.436 -286.677 -237.471 h 106.97 c 3.21 53.485 34.23 139.059 179.709 147.617 v -261.004 Z M 480.977 212.962 c -102.691 5.348 -164.732 43.857 -164.732 116.597 c 0 64.18 58.832 105.899 164.732 117.665 v -234.262 Z M 532.321 809.851 c 131.572 0 190.405 -54.554 190.405 -121.946 c 0 -69.53 -52.415 -111.247 -190.405 -129.433 v 251.378 Z" fill="#1AAD19" p-id="2360"></path></svg>
